<svg width="395" height="46" viewBox="0 0 395 46" fill="none" xmlns="http://www.w3.org/2000/svg">
<g filter="url(#filter0_i_83_9)">
<path d="M5.89844 40.3828C4.07552 40.3828 2.64323 39.901 1.60156 38.9375C0.559896 37.974 0.0390625 36.8281 0.0390625 35.5C0.0390625 34.1719 0.559896 33.026 1.60156 32.0625C2.64323 31.099 4.07552 30.6172 5.89844 30.6172H9.10156C10.9245 30.6172 12.3568 31.099 13.3984 32.0625C14.4401 33.026 14.9609 34.1719 14.9609 35.5C14.9609 36.8281 14.4401 37.974 13.3984 38.9375C12.3568 39.901 10.9245 40.3828 9.10156 40.3828H5.89844ZM25.8984 40.3828C24.0755 40.3828 22.6432 39.901 21.6016 38.9375C20.5599 37.974 20.0391 36.8281 20.0391 35.5C20.0391 34.1719 20.5599 33.026 21.6016 32.0625C22.6432 31.099 24.0755 30.6172 25.8984 30.6172H29.1016C30.9245 30.6172 32.3568 31.099 33.3984 32.0625C34.4401 33.026 34.9609 34.1719 34.9609 35.5C34.9609 36.8281 34.4401 37.974 33.3984 38.9375C32.3568 39.901 30.9245 40.3828 29.1016 40.3828H25.8984ZM5.89844 35.3828C4.07552 35.3828 2.64323 34.901 1.60156 33.9375C0.559896 32.974 0.0390625 31.8281 0.0390625 30.5C0.0390625 29.1719 0.559896 28.026 1.60156 27.0625C2.64323 26.099 4.07552 25.6172 5.89844 25.6172H9.10156C10.9245 25.6172 12.3568 26.099 13.3984 27.0625C14.4401 28.026 14.9609 29.1719 14.9609 30.5C14.9609 31.8281 14.4401 32.974 13.3984 33.9375C12.3568 34.901 10.9245 35.3828 9.10156 35.3828H5.89844ZM20.8984 35.3828C19.0755 35.3828 17.6432 34.901 16.6016 33.9375C15.5599 32.974 15.0391 31.8281 15.0391 30.5C15.0391 29.1719 15.5599 28.026 16.6016 27.0625C17.6432 26.099 19.0755 25.6172 20.8984 25.6172H24.1016C25.9245 25.6172 27.3568 26.099 28.3984 27.0625C29.4401 28.026 29.9609 29.1719 29.9609 30.5C29.9609 31.8281 29.4401 32.974 28.3984 33.9375C27.3568 34.901 25.9245 35.3828 24.1016 35.3828H20.8984ZM5.89844 30.3828C4.07552 30.3828 2.64323 29.901 1.60156 28.9375C0.559896 27.974 0.0390625 26.8281 0.0390625 25.5C0.0390625 24.1719 0.559896 23.026 1.60156 22.0625C2.64323 21.099 4.07552 20.6172 5.89844 20.6172H19.1016C20.9245 20.6172 22.3568 21.099 23.3984 22.0625C24.4401 23.026 24.9609 24.1719 24.9609 25.5C24.9609 26.8281 24.4401 27.974 23.3984 28.9375C22.3568 29.901 20.9245 30.3828 19.1016 30.3828H5.89844ZM5.89844 25.3828C4.07552 25.3828 2.64323 24.901 1.60156 23.9375C0.559896 22.974 0.0390625 21.8281 0.0390625 20.5C0.0390625 19.1719 0.559896 18.026 1.60156 17.0625C2.64323 16.099 4.07552 15.6172 5.89844 15.6172H24.1016C25.9245 15.6172 27.3568 16.099 28.3984 17.0625C29.4401 18.026 29.9609 19.1719 29.9609 20.5C29.9609 21.8281 29.4401 22.974 28.3984 23.9375C27.3568 24.901 25.9245 25.3828 24.1016 25.3828H5.89844ZM5.89844 20.3828C4.07552 20.3828 2.64323 19.901 1.60156 18.9375C0.559896 17.974 0.0390625 16.8281 0.0390625 15.5C0.0390625 14.1719 0.559896 13.026 1.60156 12.0625C2.64323 11.099 4.07552 10.6172 5.89844 10.6172H9.10156C10.9245 10.6172 12.3568 11.099 13.3984 12.0625C14.4401 13.026 14.9609 14.1719 14.9609 15.5C14.9609 16.8281 14.4401 17.974 13.3984 18.9375C12.3568 19.901 10.9245 20.3828 9.10156 20.3828H5.89844ZM25.8984 20.3828C24.0755 20.3828 22.6432 19.901 21.6016 18.9375C20.5599 17.974 20.0391 16.8281 20.0391 15.5C20.0391 14.1719 20.5599 13.026 21.6016 12.0625C22.6432 11.099 24.0755 10.6172 25.8984 10.6172H29.1016C30.9245 10.6172 32.3568 11.099 33.3984 12.0625C34.4401 13.026 34.9609 14.1719 34.9609 15.5C34.9609 16.8281 34.4401 17.974 33.3984 18.9375C32.3568 19.901 30.9245 20.3828 29.1016 20.3828H25.8984ZM5.89844 15.3828C4.07552 15.3828 2.64323 14.901 1.60156 13.9375C0.559896 12.974 0.0390625 11.8281 0.0390625 10.5C0.0390625 9.17188 0.559896 8.02604 1.60156 7.0625C2.64323 6.09896 4.07552 5.61719 5.89844 5.61719H9.10156C10.9245 5.61719 12.3568 6.09896 13.3984 7.0625C14.4401 8.02604 14.9609 9.17188 14.9609 10.5C14.9609 11.8281 14.4401 12.974 13.3984 13.9375C12.3568 14.901 10.9245 15.3828 9.10156 15.3828H5.89844ZM25.8984 15.3828C24.0755 15.3828 22.6432 14.901 21.6016 13.9375C20.5599 12.974 20.0391 11.8281 20.0391 10.5C20.0391 9.17188 20.5599 8.02604 21.6016 7.0625C22.6432 6.09896 24.0755 5.61719 25.8984 5.61719H29.1016C30.9245 5.61719 32.3568 6.09896 33.3984 7.0625C34.4401 8.02604 34.9609 9.17188 34.9609 10.5C34.9609 11.8281 34.4401 12.974 33.3984 13.9375C32.3568 14.901 30.9245 15.3828 29.1016 15.3828H25.8984ZM5.89844 10.3828C4.07552 10.3828 2.64323 9.90104 1.60156 8.9375C0.559896 7.97396 0.0390625 6.82812 0.0390625 5.5C0.0390625 4.17188 0.559896 3.02604 1.60156 2.0625C2.64323 1.09896 4.07552 0.617188 5.89844 0.617188H24.1016C25.9245 0.617188 27.3568 1.09896 28.3984 2.0625C29.4401 3.02604 29.9609 4.17188 29.9609 5.5C29.9609 6.82812 29.4401 7.97396 28.3984 8.9375C27.3568 9.90104 25.9245 10.3828 24.1016 10.3828H5.89844ZM50.8984 40.3828C49.0755 40.3828 47.6432 39.901 46.6016 38.9375C45.5599 37.974 45.0391 36.8281 45.0391 35.5C45.0391 34.1719 45.5599 33.026 46.6016 32.0625C47.6432 31.099 49.0755 30.6172 50.8984 30.6172H64.1016C65.9245 30.6172 67.3568 31.099 68.3984 32.0625C69.4401 33.026 69.9609 34.1719 69.9609 35.5C69.9609 36.8281 69.4401 37.974 68.3984 38.9375C67.3568 39.901 65.9245 40.3828 64.1016 40.3828H50.8984ZM45.8984 35.3828C44.0755 35.3828 42.6432 34.901 41.6016 33.9375C40.5599 32.974 40.0391 31.8281 40.0391 30.5C40.0391 29.1719 40.5599 28.026 41.6016 27.0625C42.6432 26.099 44.0755 25.6172 45.8984 25.6172H49.1016C50.9245 25.6172 52.3568 26.099 53.3984 27.0625C54.4401 28.026 54.9609 29.1719 54.9609 30.5C54.9609 31.8281 54.4401 32.974 53.3984 33.9375C52.3568 34.901 50.9245 35.3828 49.1016 35.3828H45.8984ZM45.8984 30.3828C44.0755 30.3828 42.6432 29.901 41.6016 28.9375C40.5599 27.974 40.0391 26.8281 40.0391 25.5C40.0391 24.1719 40.5599 23.026 41.6016 22.0625C42.6432 21.099 44.0755 20.6172 45.8984 20.6172H69.1016C70.9245 20.6172 72.3568 21.099 73.3984 22.0625C74.4401 23.026 74.9609 24.1719 74.9609 25.5C74.9609 26.8281 74.4401 27.974 73.3984 28.9375C72.3568 29.901 70.9245 30.3828 69.1016 30.3828H45.8984ZM45.8984 25.3828C44.0755 25.3828 42.6432 24.901 41.6016 23.9375C40.5599 22.974 40.0391 21.8281 40.0391 20.5C40.0391 19.1719 40.5599 18.026 41.6016 17.0625C42.6432 16.099 44.0755 15.6172 45.8984 15.6172H49.1016C50.9245 15.6172 52.3568 16.099 53.3984 17.0625C54.4401 18.026 54.9609 19.1719 54.9609 20.5C54.9609 21.8281 54.4401 22.974 53.3984 23.9375C52.3568 24.901 50.9245 25.3828 49.1016 25.3828H45.8984ZM65.8984 25.3828C64.0755 25.3828 62.6432 24.901 61.6016 23.9375C60.5599 22.974 60.0391 21.8281 60.0391 20.5C60.0391 19.1719 60.5599 18.026 61.6016 17.0625C62.6432 16.099 64.0755 15.6172 65.8984 15.6172H69.1016C70.9245 15.6172 72.3568 16.099 73.3984 17.0625C74.4401 18.026 74.9609 19.1719 74.9609 20.5C74.9609 21.8281 74.4401 22.974 73.3984 23.9375C72.3568 24.901 70.9245 25.3828 69.1016 25.3828H65.8984ZM50.8984 20.3828C49.0755 20.3828 47.6432 19.901 46.6016 18.9375C45.5599 17.974 45.0391 16.8281 45.0391 15.5C45.0391 14.1719 45.5599 13.026 46.6016 12.0625C47.6432 11.099 49.0755 10.6172 50.8984 10.6172H64.1016C65.9245 10.6172 67.3568 11.099 68.3984 12.0625C69.4401 13.026 69.9609 14.1719 69.9609 15.5C69.9609 16.8281 69.4401 17.974 68.3984 18.9375C67.3568 19.901 65.9245 20.3828 64.1016 20.3828H50.8984ZM100.898 40.3828C99.0755 40.3828 97.6432 39.901 96.6016 38.9375C95.5599 37.974 95.0391 36.8281 95.0391 35.5C95.0391 34.1719 95.5599 33.026 96.6016 32.0625C97.6432 31.099 99.0755 30.6172 100.898 30.6172H109.102C110.924 30.6172 112.357 31.099 113.398 32.0625C114.44 33.026 114.961 34.1719 114.961 35.5C114.961 36.8281 114.44 37.974 113.398 38.9375C112.357 39.901 110.924 40.3828 109.102 40.3828H100.898ZM95.8984 35.3828C94.0755 35.3828 92.6432 34.901 91.6016 33.9375C90.5599 32.974 90.0391 31.8281 90.0391 30.5C90.0391 29.1719 90.5599 28.026 91.6016 27.0625C92.6432 26.099 94.0755 25.6172 95.8984 25.6172H99.1016C100.924 25.6172 102.357 26.099 103.398 27.0625C104.44 28.026 104.961 29.1719 104.961 30.5C104.961 31.8281 104.44 32.974 103.398 33.9375C102.357 34.901 100.924 35.3828 99.1016 35.3828H95.8984ZM95.8984 30.3828C94.0755 30.3828 92.6432 29.901 91.6016 28.9375C90.5599 27.974 90.0391 26.8281 90.0391 25.5C90.0391 24.1719 90.5599 23.026 91.6016 22.0625C92.6432 21.099 94.0755 20.6172 95.8984 20.6172H99.1016C100.924 20.6172 102.357 21.099 103.398 22.0625C104.44 23.026 104.961 24.1719 104.961 25.5C104.961 26.8281 104.44 27.974 103.398 28.9375C102.357 29.901 100.924 30.3828 99.1016 30.3828H95.8984ZM95.8984 25.3828C94.0755 25.3828 92.6432 24.901 91.6016 23.9375C90.5599 22.974 90.0391 21.8281 90.0391 20.5C90.0391 19.1719 90.5599 18.026 91.6016 17.0625C92.6432 16.099 94.0755 15.6172 95.8984 15.6172H99.1016C100.924 15.6172 102.357 16.099 103.398 17.0625C104.44 18.026 104.961 19.1719 104.961 20.5C104.961 21.8281 104.44 22.974 103.398 23.9375C102.357 24.901 100.924 25.3828 99.1016 25.3828H95.8984ZM85.8984 20.3828C84.0755 20.3828 82.6432 19.901 81.6016 18.9375C80.5599 17.974 80.0391 16.8281 80.0391 15.5C80.0391 14.1719 80.5599 13.026 81.6016 12.0625C82.6432 11.099 84.0755 10.6172 85.8984 10.6172H109.102C110.924 10.6172 112.357 11.099 113.398 12.0625C114.44 13.026 114.961 14.1719 114.961 15.5C114.961 16.8281 114.44 17.974 113.398 18.9375C112.357 19.901 110.924 20.3828 109.102 20.3828H85.8984ZM95.8984 15.3828C94.0755 15.3828 92.6432 14.901 91.6016 13.9375C90.5599 12.974 90.0391 11.8281 90.0391 10.5C90.0391 9.17188 90.5599 8.02604 91.6016 7.0625C92.6432 6.09896 94.0755 5.61719 95.8984 5.61719H99.1016C100.924 5.61719 102.357 6.09896 103.398 7.0625C104.44 8.02604 104.961 9.17188 104.961 10.5C104.961 11.8281 104.44 12.974 103.398 13.9375C102.357 14.901 100.924 15.3828 99.1016 15.3828H95.8984ZM125.898 40.3828C124.076 40.3828 122.643 39.901 121.602 38.9375C120.56 37.974 120.039 36.8281 120.039 35.5C120.039 34.1719 120.56 33.026 121.602 32.0625C122.643 31.099 124.076 30.6172 125.898 30.6172H129.102C130.924 30.6172 132.357 31.099 133.398 32.0625C134.44 33.026 134.961 34.1719 134.961 35.5C134.961 36.8281 134.44 37.974 133.398 38.9375C132.357 39.901 130.924 40.3828 129.102 40.3828H125.898ZM125.898 35.3828C124.076 35.3828 122.643 34.901 121.602 33.9375C120.56 32.974 120.039 31.8281 120.039 30.5C120.039 29.1719 120.56 28.026 121.602 27.0625C122.643 26.099 124.076 25.6172 125.898 25.6172H129.102C130.924 25.6172 132.357 26.099 133.398 27.0625C134.44 28.026 134.961 29.1719 134.961 30.5C134.961 31.8281 134.44 32.974 133.398 33.9375C132.357 34.901 130.924 35.3828 129.102 35.3828H125.898ZM125.898 30.3828C124.076 30.3828 122.643 29.901 121.602 28.9375C120.56 27.974 120.039 26.8281 120.039 25.5C120.039 24.1719 120.56 23.026 121.602 22.0625C122.643 21.099 124.076 20.6172 125.898 20.6172H129.102C130.924 20.6172 132.357 21.099 133.398 22.0625C134.44 23.026 134.961 24.1719 134.961 25.5C134.961 26.8281 134.44 27.974 133.398 28.9375C132.357 29.901 130.924 30.3828 129.102 30.3828H125.898ZM125.898 25.3828C124.076 25.3828 122.643 24.901 121.602 23.9375C120.56 22.974 120.039 21.8281 120.039 20.5C120.039 19.1719 120.56 18.026 121.602 17.0625C122.643 16.099 124.076 15.6172 125.898 15.6172H129.102C130.924 15.6172 132.357 16.099 133.398 17.0625C134.44 18.026 134.961 19.1719 134.961 20.5C134.961 21.8281 134.44 22.974 133.398 23.9375C132.357 24.901 130.924 25.3828 129.102 25.3828H125.898ZM145.898 25.3828C144.076 25.3828 142.643 24.901 141.602 23.9375C140.56 22.974 140.039 21.8281 140.039 20.5C140.039 19.1719 140.56 18.026 141.602 17.0625C142.643 16.099 144.076 15.6172 145.898 15.6172H149.102C150.924 15.6172 152.357 16.099 153.398 17.0625C154.44 18.026 154.961 19.1719 154.961 20.5C154.961 21.8281 154.44 22.974 153.398 23.9375C152.357 24.901 150.924 25.3828 149.102 25.3828H145.898ZM125.898 20.3828C124.076 20.3828 122.643 19.901 121.602 18.9375C120.56 17.974 120.039 16.8281 120.039 15.5C120.039 14.1719 120.56 13.026 121.602 12.0625C122.643 11.099 124.076 10.6172 125.898 10.6172H144.102C145.924 10.6172 147.357 11.099 148.398 12.0625C149.44 13.026 149.961 14.1719 149.961 15.5C149.961 16.8281 149.44 17.974 148.398 18.9375C147.357 19.901 145.924 20.3828 144.102 20.3828H125.898ZM170.898 40.3828C169.076 40.3828 167.643 39.901 166.602 38.9375C165.56 37.974 165.039 36.8281 165.039 35.5C165.039 34.1719 165.56 33.026 166.602 32.0625C167.643 31.099 169.076 30.6172 170.898 30.6172H184.102C185.924 30.6172 187.357 31.099 188.398 32.0625C189.44 33.026 189.961 34.1719 189.961 35.5C189.961 36.8281 189.44 37.974 188.398 38.9375C187.357 39.901 185.924 40.3828 184.102 40.3828H170.898ZM165.898 35.3828C164.076 35.3828 162.643 34.901 161.602 33.9375C160.56 32.974 160.039 31.8281 160.039 30.5C160.039 29.1719 160.56 28.026 161.602 27.0625C162.643 26.099 164.076 25.6172 165.898 25.6172H169.102C170.924 25.6172 172.357 26.099 173.398 27.0625C174.44 28.026 174.961 29.1719 174.961 30.5C174.961 31.8281 174.44 32.974 173.398 33.9375C172.357 34.901 170.924 35.3828 169.102 35.3828H165.898ZM185.898 35.3828C184.076 35.3828 182.643 34.901 181.602 33.9375C180.56 32.974 180.039 31.8281 180.039 30.5C180.039 29.1719 180.56 28.026 181.602 27.0625C182.643 26.099 184.076 25.6172 185.898 25.6172H189.102C190.924 25.6172 192.357 26.099 193.398 27.0625C194.44 28.026 194.961 29.1719 194.961 30.5C194.961 31.8281 194.44 32.974 193.398 33.9375C192.357 34.901 190.924 35.3828 189.102 35.3828H185.898ZM165.898 30.3828C164.076 30.3828 162.643 29.901 161.602 28.9375C160.56 27.974 160.039 26.8281 160.039 25.5C160.039 24.1719 160.56 23.026 161.602 22.0625C162.643 21.099 164.076 20.6172 165.898 20.6172H169.102C170.924 20.6172 172.357 21.099 173.398 22.0625C174.44 23.026 174.961 24.1719 174.961 25.5C174.961 26.8281 174.44 27.974 173.398 28.9375C172.357 29.901 170.924 30.3828 169.102 30.3828H165.898ZM185.898 30.3828C184.076 30.3828 182.643 29.901 181.602 28.9375C180.56 27.974 180.039 26.8281 180.039 25.5C180.039 24.1719 180.56 23.026 181.602 22.0625C182.643 21.099 184.076 20.6172 185.898 20.6172H189.102C190.924 20.6172 192.357 21.099 193.398 22.0625C194.44 23.026 194.961 24.1719 194.961 25.5C194.961 26.8281 194.44 27.974 193.398 28.9375C192.357 29.901 190.924 30.3828 189.102 30.3828H185.898ZM165.898 25.3828C164.076 25.3828 162.643 24.901 161.602 23.9375C160.56 22.974 160.039 21.8281 160.039 20.5C160.039 19.1719 160.56 18.026 161.602 17.0625C162.643 16.099 164.076 15.6172 165.898 15.6172H169.102C170.924 15.6172 172.357 16.099 173.398 17.0625C174.44 18.026 174.961 19.1719 174.961 20.5C174.961 21.8281 174.44 22.974 173.398 23.9375C172.357 24.901 170.924 25.3828 169.102 25.3828H165.898ZM185.898 25.3828C184.076 25.3828 182.643 24.901 181.602 23.9375C180.56 22.974 180.039 21.8281 180.039 20.5C180.039 19.1719 180.56 18.026 181.602 17.0625C182.643 16.099 184.076 15.6172 185.898 15.6172H189.102C190.924 15.6172 192.357 16.099 193.398 17.0625C194.44 18.026 194.961 19.1719 194.961 20.5C194.961 21.8281 194.44 22.974 193.398 23.9375C192.357 24.901 190.924 25.3828 189.102 25.3828H185.898ZM170.898 20.3828C169.076 20.3828 167.643 19.901 166.602 18.9375C165.56 17.974 165.039 16.8281 165.039 15.5C165.039 14.1719 165.56 13.026 166.602 12.0625C167.643 11.099 169.076 10.6172 170.898 10.6172H184.102C185.924 10.6172 187.357 11.099 188.398 12.0625C189.44 13.026 189.961 14.1719 189.961 15.5C189.961 16.8281 189.44 17.974 188.398 18.9375C187.357 19.901 185.924 20.3828 184.102 20.3828H170.898ZM245.898 40.3828C244.076 40.3828 242.643 39.901 241.602 38.9375C240.56 37.974 240.039 36.8281 240.039 35.5C240.039 34.1719 240.56 33.026 241.602 32.0625C242.643 31.099 244.076 30.6172 245.898 30.6172H269.102C270.924 30.6172 272.357 31.099 273.398 32.0625C274.44 33.026 274.961 34.1719 274.961 35.5C274.961 36.8281 274.44 37.974 273.398 38.9375C272.357 39.901 270.924 40.3828 269.102 40.3828H245.898ZM245.898 35.3828C244.076 35.3828 242.643 34.901 241.602 33.9375C240.56 32.974 240.039 31.8281 240.039 30.5C240.039 29.1719 240.56 28.026 241.602 27.0625C242.643 26.099 244.076 25.6172 245.898 25.6172H249.102C250.924 25.6172 252.357 26.099 253.398 27.0625C254.44 28.026 254.961 29.1719 254.961 30.5C254.961 31.8281 254.44 32.974 253.398 33.9375C252.357 34.901 250.924 35.3828 249.102 35.3828H245.898ZM245.898 30.3828C244.076 30.3828 242.643 29.901 241.602 28.9375C240.56 27.974 240.039 26.8281 240.039 25.5C240.039 24.1719 240.56 23.026 241.602 22.0625C242.643 21.099 244.076 20.6172 245.898 20.6172H249.102C250.924 20.6172 252.357 21.099 253.398 22.0625C254.44 23.026 254.961 24.1719 254.961 25.5C254.961 26.8281 254.44 27.974 253.398 28.9375C252.357 29.901 250.924 30.3828 249.102 30.3828H245.898ZM245.898 25.3828C244.076 25.3828 242.643 24.901 241.602 23.9375C240.56 22.974 240.039 21.8281 240.039 20.5C240.039 19.1719 240.56 18.026 241.602 17.0625C242.643 16.099 244.076 15.6172 245.898 15.6172H249.102C250.924 15.6172 252.357 16.099 253.398 17.0625C254.44 18.026 254.961 19.1719 254.961 20.5C254.961 21.8281 254.44 22.974 253.398 23.9375C252.357 24.901 250.924 25.3828 249.102 25.3828H245.898ZM245.898 20.3828C244.076 20.3828 242.643 19.901 241.602 18.9375C240.56 17.974 240.039 16.8281 240.039 15.5C240.039 14.1719 240.56 13.026 241.602 12.0625C242.643 11.099 244.076 10.6172 245.898 10.6172H249.102C250.924 10.6172 252.357 11.099 253.398 12.0625C254.44 13.026 254.961 14.1719 254.961 15.5C254.961 16.8281 254.44 17.974 253.398 18.9375C252.357 19.901 250.924 20.3828 249.102 20.3828H245.898ZM245.898 15.3828C244.076 15.3828 242.643 14.901 241.602 13.9375C240.56 12.974 240.039 11.8281 240.039 10.5C240.039 9.17188 240.56 8.02604 241.602 7.0625C242.643 6.09896 244.076 5.61719 245.898 5.61719H249.102C250.924 5.61719 252.357 6.09896 253.398 7.0625C254.44 8.02604 254.961 9.17188 254.961 10.5C254.961 11.8281 254.44 12.974 253.398 13.9375C252.357 14.901 250.924 15.3828 249.102 15.3828H245.898ZM245.898 10.3828C244.076 10.3828 242.643 9.90104 241.602 8.9375C240.56 7.97396 240.039 6.82812 240.039 5.5C240.039 4.17188 240.56 3.02604 241.602 2.0625C242.643 1.09896 244.076 0.617188 245.898 0.617188H249.102C250.924 0.617188 252.357 1.09896 253.398 2.0625C254.44 3.02604 254.961 4.17188 254.961 5.5C254.961 6.82812 254.44 7.97396 253.398 8.9375C252.357 9.90104 250.924 10.3828 249.102 10.3828H245.898ZM290.898 40.3828C289.076 40.3828 287.643 39.901 286.602 38.9375C285.56 37.974 285.039 36.8281 285.039 35.5C285.039 34.1719 285.56 33.026 286.602 32.0625C287.643 31.099 289.076 30.6172 290.898 30.6172H304.102C305.924 30.6172 307.357 31.099 308.398 32.0625C309.44 33.026 309.961 34.1719 309.961 35.5C309.961 36.8281 309.44 37.974 308.398 38.9375C307.357 39.901 305.924 40.3828 304.102 40.3828H290.898ZM285.898 35.3828C284.076 35.3828 282.643 34.901 281.602 33.9375C280.56 32.974 280.039 31.8281 280.039 30.5C280.039 29.1719 280.56 28.026 281.602 27.0625C282.643 26.099 284.076 25.6172 285.898 25.6172H289.102C290.924 25.6172 292.357 26.099 293.398 27.0625C294.44 28.026 294.961 29.1719 294.961 30.5C294.961 31.8281 294.44 32.974 293.398 33.9375C292.357 34.901 290.924 35.3828 289.102 35.3828H285.898ZM305.898 35.3828C304.076 35.3828 302.643 34.901 301.602 33.9375C300.56 32.974 300.039 31.8281 300.039 30.5C300.039 29.1719 300.56 28.026 301.602 27.0625C302.643 26.099 304.076 25.6172 305.898 25.6172H309.102C310.924 25.6172 312.357 26.099 313.398 27.0625C314.44 28.026 314.961 29.1719 314.961 30.5C314.961 31.8281 314.44 32.974 313.398 33.9375C312.357 34.901 310.924 35.3828 309.102 35.3828H305.898ZM285.898 30.3828C284.076 30.3828 282.643 29.901 281.602 28.9375C280.56 27.974 280.039 26.8281 280.039 25.5C280.039 24.1719 280.56 23.026 281.602 22.0625C282.643 21.099 284.076 20.6172 285.898 20.6172H289.102C290.924 20.6172 292.357 21.099 293.398 22.0625C294.44 23.026 294.961 24.1719 294.961 25.5C294.961 26.8281 294.44 27.974 293.398 28.9375C292.357 29.901 290.924 30.3828 289.102 30.3828H285.898ZM305.898 30.3828C304.076 30.3828 302.643 29.901 301.602 28.9375C300.56 27.974 300.039 26.8281 300.039 25.5C300.039 24.1719 300.56 23.026 301.602 22.0625C302.643 21.099 304.076 20.6172 305.898 20.6172H309.102C310.924 20.6172 312.357 21.099 313.398 22.0625C314.44 23.026 314.961 24.1719 314.961 25.5C314.961 26.8281 314.44 27.974 313.398 28.9375C312.357 29.901 310.924 30.3828 309.102 30.3828H305.898ZM285.898 25.3828C284.076 25.3828 282.643 24.901 281.602 23.9375C280.56 22.974 280.039 21.8281 280.039 20.5C280.039 19.1719 280.56 18.026 281.602 17.0625C282.643 16.099 284.076 15.6172 285.898 15.6172H289.102C290.924 15.6172 292.357 16.099 293.398 17.0625C294.44 18.026 294.961 19.1719 294.961 20.5C294.961 21.8281 294.44 22.974 293.398 23.9375C292.357 24.901 290.924 25.3828 289.102 25.3828H285.898ZM305.898 25.3828C304.076 25.3828 302.643 24.901 301.602 23.9375C300.56 22.974 300.039 21.8281 300.039 20.5C300.039 19.1719 300.56 18.026 301.602 17.0625C302.643 16.099 304.076 15.6172 305.898 15.6172H309.102C310.924 15.6172 312.357 16.099 313.398 17.0625C314.44 18.026 314.961 19.1719 314.961 20.5C314.961 21.8281 314.44 22.974 313.398 23.9375C312.357 24.901 310.924 25.3828 309.102 25.3828H305.898ZM290.898 20.3828C289.076 20.3828 287.643 19.901 286.602 18.9375C285.56 17.974 285.039 16.8281 285.039 15.5C285.039 14.1719 285.56 13.026 286.602 12.0625C287.643 11.099 289.076 10.6172 290.898 10.6172H304.102C305.924 10.6172 307.357 11.099 308.398 12.0625C309.44 13.026 309.961 14.1719 309.961 15.5C309.961 16.8281 309.44 17.974 308.398 18.9375C307.357 19.901 305.924 20.3828 304.102 20.3828H290.898ZM330.898 40.3828C329.076 40.3828 327.643 39.901 326.602 38.9375C325.56 37.974 325.039 36.8281 325.039 35.5C325.039 34.1719 325.56 33.026 326.602 32.0625C327.643 31.099 329.076 30.6172 330.898 30.6172H344.102C345.924 30.6172 347.357 31.099 348.398 32.0625C349.44 33.026 349.961 34.1719 349.961 35.5C349.961 36.8281 349.44 37.974 348.398 38.9375C347.357 39.901 345.924 40.3828 344.102 40.3828H330.898ZM325.898 35.3828C324.076 35.3828 322.643 34.901 321.602 33.9375C320.56 32.974 320.039 31.8281 320.039 30.5C320.039 29.1719 320.56 28.026 321.602 27.0625C322.643 26.099 324.076 25.6172 325.898 25.6172H329.102C330.924 25.6172 332.357 26.099 333.398 27.0625C334.44 28.026 334.961 29.1719 334.961 30.5C334.961 31.8281 334.44 32.974 333.398 33.9375C332.357 34.901 330.924 35.3828 329.102 35.3828H325.898ZM345.898 35.3828C344.076 35.3828 342.643 34.901 341.602 33.9375C340.56 32.974 340.039 31.8281 340.039 30.5C340.039 29.1719 340.56 28.026 341.602 27.0625C342.643 26.099 344.076 25.6172 345.898 25.6172H349.102C350.924 25.6172 352.357 26.099 353.398 27.0625C354.44 28.026 354.961 29.1719 354.961 30.5C354.961 31.8281 354.44 32.974 353.398 33.9375C352.357 34.901 350.924 35.3828 349.102 35.3828H345.898ZM325.898 30.3828C324.076 30.3828 322.643 29.901 321.602 28.9375C320.56 27.974 320.039 26.8281 320.039 25.5C320.039 24.1719 320.56 23.026 321.602 22.0625C322.643 21.099 324.076 20.6172 325.898 20.6172H329.102C330.924 20.6172 332.357 21.099 333.398 22.0625C334.44 23.026 334.961 24.1719 334.961 25.5C334.961 26.8281 334.44 27.974 333.398 28.9375C332.357 29.901 330.924 30.3828 329.102 30.3828H325.898ZM345.898 30.3828C344.076 30.3828 342.643 29.901 341.602 28.9375C340.56 27.974 340.039 26.8281 340.039 25.5C340.039 24.1719 340.56 23.026 341.602 22.0625C342.643 21.099 344.076 20.6172 345.898 20.6172H349.102C350.924 20.6172 352.357 21.099 353.398 22.0625C354.44 23.026 354.961 24.1719 354.961 25.5C354.961 26.8281 354.44 27.974 353.398 28.9375C352.357 29.901 350.924 30.3828 349.102 30.3828H345.898ZM325.898 25.3828C324.076 25.3828 322.643 24.901 321.602 23.9375C320.56 22.974 320.039 21.8281 320.039 20.5C320.039 19.1719 320.56 18.026 321.602 17.0625C322.643 16.099 324.076 15.6172 325.898 15.6172H329.102C330.924 15.6172 332.357 16.099 333.398 17.0625C334.44 18.026 334.961 19.1719 334.961 20.5C334.961 21.8281 334.44 22.974 333.398 23.9375C332.357 24.901 330.924 25.3828 329.102 25.3828H325.898ZM345.898 25.3828C344.076 25.3828 342.643 24.901 341.602 23.9375C340.56 22.974 340.039 21.8281 340.039 20.5C340.039 19.1719 340.56 18.026 341.602 17.0625C342.643 16.099 344.076 15.6172 345.898 15.6172H349.102C350.924 15.6172 352.357 16.099 353.398 17.0625C354.44 18.026 354.961 19.1719 354.961 20.5C354.961 21.8281 354.44 22.974 353.398 23.9375C352.357 24.901 350.924 25.3828 349.102 25.3828H345.898ZM330.898 20.3828C329.076 20.3828 327.643 19.901 326.602 18.9375C325.56 17.974 325.039 16.8281 325.039 15.5C325.039 14.1719 325.56 13.026 326.602 12.0625C327.643 11.099 329.076 10.6172 330.898 10.6172H344.102C345.924 10.6172 347.357 11.099 348.398 12.0625C349.44 13.026 349.961 14.1719 349.961 15.5C349.961 16.8281 349.44 17.974 348.398 18.9375C347.357 19.901 345.924 20.3828 344.102 20.3828H330.898ZM365.898 45.3828C364.076 45.3828 362.643 44.901 361.602 43.9375C360.56 42.974 360.039 41.8281 360.039 40.5C360.039 39.1719 360.56 38.026 361.602 37.0625C362.643 36.099 364.076 35.6172 365.898 35.6172H369.102C370.924 35.6172 372.357 36.099 373.398 37.0625C374.44 38.026 374.961 39.1719 374.961 40.5C374.961 41.8281 374.44 42.974 373.398 43.9375C372.357 44.901 370.924 45.3828 369.102 45.3828H365.898ZM365.898 40.3828C364.076 40.3828 362.643 39.901 361.602 38.9375C360.56 37.974 360.039 36.8281 360.039 35.5C360.039 34.1719 360.56 33.026 361.602 32.0625C362.643 31.099 364.076 30.6172 365.898 30.6172H369.102C370.924 30.6172 372.357 31.099 373.398 32.0625C374.44 33.026 374.961 34.1719 374.961 35.5C374.961 36.8281 374.44 37.974 373.398 38.9375C372.357 39.901 370.924 40.3828 369.102 40.3828H365.898ZM365.898 35.3828C364.076 35.3828 362.643 34.901 361.602 33.9375C360.56 32.974 360.039 31.8281 360.039 30.5C360.039 29.1719 360.56 28.026 361.602 27.0625C362.643 26.099 364.076 25.6172 365.898 25.6172H384.102C385.924 25.6172 387.357 26.099 388.398 27.0625C389.44 28.026 389.961 29.1719 389.961 30.5C389.961 31.8281 389.44 32.974 388.398 33.9375C387.357 34.901 385.924 35.3828 384.102 35.3828H365.898ZM365.898 30.3828C364.076 30.3828 362.643 29.901 361.602 28.9375C360.56 27.974 360.039 26.8281 360.039 25.5C360.039 24.1719 360.56 23.026 361.602 22.0625C362.643 21.099 364.076 20.6172 365.898 20.6172H369.102C370.924 20.6172 372.357 21.099 373.398 22.0625C374.44 23.026 374.961 24.1719 374.961 25.5C374.961 26.8281 374.44 27.974 373.398 28.9375C372.357 29.901 370.924 30.3828 369.102 30.3828H365.898ZM385.898 30.3828C384.076 30.3828 382.643 29.901 381.602 28.9375C380.56 27.974 380.039 26.8281 380.039 25.5C380.039 24.1719 380.56 23.026 381.602 22.0625C382.643 21.099 384.076 20.6172 385.898 20.6172H389.102C390.924 20.6172 392.357 21.099 393.398 22.0625C394.44 23.026 394.961 24.1719 394.961 25.5C394.961 26.8281 394.44 27.974 393.398 28.9375C392.357 29.901 390.924 30.3828 389.102 30.3828H385.898ZM365.898 25.3828C364.076 25.3828 362.643 24.901 361.602 23.9375C360.56 22.974 360.039 21.8281 360.039 20.5C360.039 19.1719 360.56 18.026 361.602 17.0625C362.643 16.099 364.076 15.6172 365.898 15.6172H369.102C370.924 15.6172 372.357 16.099 373.398 17.0625C374.44 18.026 374.961 19.1719 374.961 20.5C374.961 21.8281 374.44 22.974 373.398 23.9375C372.357 24.901 370.924 25.3828 369.102 25.3828H365.898ZM385.898 25.3828C384.076 25.3828 382.643 24.901 381.602 23.9375C380.56 22.974 380.039 21.8281 380.039 20.5C380.039 19.1719 380.56 18.026 381.602 17.0625C382.643 16.099 384.076 15.6172 385.898 15.6172H389.102C390.924 15.6172 392.357 16.099 393.398 17.0625C394.44 18.026 394.961 19.1719 394.961 20.5C394.961 21.8281 394.44 22.974 393.398 23.9375C392.357 24.901 390.924 25.3828 389.102 25.3828H385.898ZM365.898 20.3828C364.076 20.3828 362.643 19.901 361.602 18.9375C360.56 17.974 360.039 16.8281 360.039 15.5C360.039 14.1719 360.56 13.026 361.602 12.0625C362.643 11.099 364.076 10.6172 365.898 10.6172H384.102C385.924 10.6172 387.357 11.099 388.398 12.0625C389.44 13.026 389.961 14.1719 389.961 15.5C389.961 16.8281 389.44 17.974 388.398 18.9375C387.357 19.901 385.924 20.3828 384.102 20.3828H365.898Z" fill="#FDF500"/>
</g>
<defs>
<filter id="filter0_i_83_9" x="0.0390625" y="0.617188" width="394.922" height="48.7656" filterUnits="userSpaceOnUse" color-interpolation-filters="sRGB">
<feFlood flood-opacity="0" result="BackgroundImageFix"/>
<feBlend mode="normal" in="SourceGraphic" in2="BackgroundImageFix" result="shape"/>
<feColorMatrix in="SourceAlpha" type="matrix" values="0 0 0 0 0 0 0 0 0 0 0 0 0 0 0 0 0 0 127 0" result="hardAlpha"/>
<feOffset dy="4"/>
<feGaussianBlur stdDeviation="2"/>
<feComposite in2="hardAlpha" operator="arithmetic" k2="-1" k3="1"/>
<feColorMatrix type="matrix" values="0 0 0 0 0.876667 0 0 0 0 0.541342 0 0 0 0 0.541342 0 0 0 1 0"/>
<feBlend mode="normal" in2="shape" result="effect1_innerShadow_83_9"/>
</filter>
</defs>
</svg>
